<?xml version="1.0" encoding="UTF-8"?>
<!-- Generator: visioncortex VTracer 0.6.3 -->
<svg version="1.1" xmlns="http://www.w3.org/2000/svg" width="112" height="112">
<path d="M0 0 C1.23 0.9 1.23 0.9 2.49 1.83 C3.2 2.33 3.9 2.83 4.63 3.34 C14.37 10.95 21.61 23.7 23.49 35.83 C24.98 53.23 23.03 67.49 12.49 81.83 C11.99 82.54 11.49 83.24 10.97 83.97 C3.37 93.71 -9.39 100.95 -21.51 102.83 C-38.91 104.32 -53.17 102.37 -67.51 91.83 C-68.57 91.08 -68.57 91.08 -69.66 90.31 C-79.39 82.71 -86.64 69.95 -88.51 57.83 C-90 40.43 -88.05 26.17 -77.51 11.83 C-77.01 11.12 -76.51 10.41 -76 9.68 C-58.29 -12.99 -22.86 -15.75 0 0 Z M-59.51 10.83 C-59.51 34.92 -59.51 59.01 -59.51 83.83 C-54.89 83.83 -50.27 83.83 -45.51 83.83 C-45.53 81.01 -45.53 81.01 -45.54 78.13 C-45.51 75.66 -45.48 73.18 -45.45 70.7 C-45.46 69.47 -45.47 68.23 -45.48 66.95 C-45.31 57.92 -45.31 57.92 -42.89 54.62 C-41.16 53.14 -39.5 51.92 -37.51 50.83 C-37.26 51.53 -37 52.23 -36.74 52.95 C-35.37 56.16 -33.7 58.97 -31.85 61.93 C-31.5 62.5 -31.15 63.06 -30.79 63.65 C-29.68 65.44 -28.57 67.23 -27.45 69.02 C-26.33 70.82 -25.21 72.62 -24.1 74.42 C-23.09 76.04 -22.07 77.67 -21.06 79.29 C-19.51 81.83 -19.51 81.83 -18.51 83.83 C-12.9 83.83 -7.29 83.83 -1.51 83.83 C-5.68 76.53 -10.02 69.37 -14.51 62.27 C-15.03 61.45 -15.55 60.63 -16.08 59.78 C-18.31 56.26 -20.54 52.76 -22.88 49.3 C-23.52 48.34 -24.16 47.38 -24.82 46.39 C-25.65 45.19 -25.65 45.19 -26.5 43.96 C-27.51 41.83 -27.51 41.83 -27.52 39.92 C-25.98 36.71 -23.58 34.36 -21.14 31.83 C-20.05 30.68 -18.96 29.52 -17.88 28.37 C-17.05 27.49 -17.05 27.49 -16.19 26.6 C-13.53 23.8 -10.89 20.97 -8.26 18.14 C-7.78 17.64 -7.31 17.13 -6.81 16.61 C-4.25 14.13 -4.25 14.13 -3.51 10.83 C-12.93 9.59 -12.93 9.59 -21.49 12.77 C-24.02 15.34 -26.29 17.99 -28.51 20.83 C-29.69 22.17 -30.88 23.5 -32.07 24.83 C-33.21 26.15 -34.34 27.47 -35.51 28.83 C-38.48 32.13 -41.45 35.43 -44.51 38.83 C-44.84 29.59 -45.17 20.35 -45.51 10.83 C-50.13 10.83 -54.75 10.83 -59.51 10.83 Z " fill="#028102" transform="translate(88.51171875,9.171875)"/>
</svg>
